<svg width="21" height="21" viewBox="0 0 21 21" fill="none" xmlns="http://www.w3.org/2000/svg">
<path d="M10.5 1.96875C8.81268 1.96875 7.16325 2.4691 5.76029 3.40652C4.35733 4.34395 3.26386 5.67635 2.61815 7.23523C1.97244 8.79411 1.8035 10.5095 2.13268 12.1644C2.46186 13.8193 3.27438 15.3394 4.4675 16.5325C5.66061 17.7256 7.18074 18.5381 8.83564 18.8673C10.4905 19.1965 12.2059 19.0276 13.7648 18.3818C15.3236 17.7361 16.656 16.6427 17.5935 15.2397C18.5309 13.8368 19.0312 12.1873 19.0312 10.5C19.0289 8.2381 18.1293 6.06954 16.5299 4.47013C14.9305 2.87073 12.7619 1.97114 10.5 1.96875ZM10.5 17.7188C9.07227 17.7188 7.67659 17.2954 6.48948 16.5022C5.30236 15.709 4.37711 14.5816 3.83074 13.2625C3.28437 11.9434 3.14142 10.492 3.41996 9.09169C3.69849 7.69139 4.38601 6.40513 5.39557 5.39557C6.40513 4.38601 7.69139 3.69849 9.09169 3.41996C10.492 3.14142 11.9434 3.28437 13.2625 3.83074C14.5816 4.37711 15.709 5.30236 16.5022 6.48948C17.2954 7.67659 17.7188 9.07227 17.7188 10.5C17.7166 12.4139 16.9553 14.2487 15.602 15.602C14.2487 16.9553 12.4139 17.7166 10.5 17.7188ZM6.5625 8.85938C6.5625 8.66468 6.62023 8.47437 6.7284 8.31249C6.83656 8.15061 6.9903 8.02444 7.17017 7.94993C7.35004 7.87543 7.54797 7.85593 7.73892 7.89391C7.92987 7.9319 8.10527 8.02565 8.24293 8.16332C8.3806 8.30098 8.47435 8.47638 8.51234 8.66733C8.55032 8.85828 8.53082 9.05621 8.45632 9.23608C8.38181 9.41595 8.25564 9.56969 8.09376 9.67785C7.93188 9.78602 7.74157 9.84375 7.54688 9.84375C7.2858 9.84375 7.03542 9.74004 6.85082 9.55543C6.66621 9.37083 6.5625 9.12045 6.5625 8.85938ZM14.4375 8.85938C14.4375 9.05407 14.3798 9.24438 14.2716 9.40626C14.1634 9.56814 14.0097 9.69431 13.8298 9.76882C13.65 9.84332 13.452 9.86282 13.2611 9.82484C13.0701 9.78685 12.8947 9.6931 12.7571 9.55543C12.6194 9.41777 12.5256 9.24237 12.4877 9.05142C12.4497 8.86047 12.4692 8.66254 12.5437 8.48267C12.6182 8.3028 12.7444 8.14906 12.9062 8.0409C13.0681 7.93273 13.2584 7.875 13.4531 7.875C13.7142 7.875 13.9646 7.97871 14.1492 8.16332C14.3338 8.34792 14.4375 8.5983 14.4375 8.85938ZM14.3497 12.7969C13.5056 14.2562 12.1021 15.0938 10.5 15.0938C8.89793 15.0938 7.4952 14.257 6.65109 12.7969C6.60361 12.7222 6.57173 12.6387 6.55736 12.5513C6.543 12.464 6.54645 12.3747 6.56751 12.2887C6.58856 12.2027 6.62679 12.1219 6.67989 12.0511C6.73299 11.9803 6.79987 11.9209 6.8765 11.8767C6.95312 11.8324 7.03792 11.804 7.12578 11.7934C7.21364 11.7827 7.30276 11.7899 7.38776 11.8146C7.47276 11.8392 7.5519 11.8808 7.62041 11.9368C7.68892 11.9929 7.74538 12.0622 7.78641 12.1406C8.39918 13.1996 9.36223 13.7812 10.5 13.7812C11.6378 13.7812 12.6008 13.1988 13.2128 12.1406C13.2998 11.9899 13.4432 11.8798 13.6113 11.8348C13.7794 11.7897 13.9586 11.8132 14.1094 11.9003C14.2601 11.9873 14.3702 12.1307 14.4152 12.2988C14.4603 12.4669 14.4368 12.6461 14.3497 12.7969Z" fill="#A4A4A4"/>
</svg>
