<svg width="18" height="17" viewBox="0 0 18 17" fill="none" xmlns="http://www.w3.org/2000/svg">
<path d="M12.1254 7C13.0031 7 13.7147 6.32843 13.7147 5.5C13.7147 4.67157 13.0031 4 12.1254 4C11.2476 4 10.536 4.67157 10.536 5.5C10.536 6.32843 11.2476 7 12.1254 7Z" stroke="#A4A4A4"/>
<path d="M1 8.87498L2.39226 7.72523C2.74123 7.43729 3.19308 7.28523 3.65636 7.29985C4.11963 7.31447 4.55971 7.49468 4.88752 7.80398L8.29665 11.0215C8.5612 11.2711 8.91057 11.4247 9.28327 11.4551C9.65597 11.4856 10.0281 11.391 10.3342 11.188L10.5718 11.0305C11.0133 10.7378 11.5469 10.5952 12.0855 10.6258C12.624 10.6565 13.1356 10.8586 13.5367 11.1992L16.0987 13.375" stroke="#A4A4A4" stroke-linecap="round"/>
<path d="M16.8934 8.5C16.8934 12.0355 16.8934 13.8032 15.7292 14.9012C14.5666 16 12.6928 16 8.94669 16C5.20062 16 3.32758 16 2.16339 14.9012C1 13.804 1 12.0355 1 8.5C1 4.9645 1 3.19675 2.16339 2.098C3.32838 1 5.20062 1 8.94669 1C12.6928 1 14.5658 1 15.7292 2.098C16.5032 2.8285 16.7623 3.85525 16.8497 5.5" stroke="#A4A4A4" stroke-linecap="round"/>
</svg>
