<svg width="13" height="13" viewBox="0 0 13 13" fill="none" xmlns="http://www.w3.org/2000/svg">
<path d="M6.5 0C2.916 0 0 2.916 0 6.5C0 10.084 2.916 13 6.5 13C10.084 13 13 10.084 13 6.5C13 2.916 10.084 0 6.5 0ZM6.5 1C6.801 1 7.0875 1.0315 7.375 1.078L6.5 1.703L5.625 1.078C5.911 1.033 6.201 1 6.5 1ZM4.406 1.422L6.203 2.7345L6.5 2.9525L6.797 2.734L8.5935 1.421C9.3935 1.7525 10.0985 2.261 10.656 2.905L9.9685 5.046L9.8595 5.3895L10.156 5.5935L11.9685 6.9215C11.9055 7.77736 11.6432 8.60661 11.2025 9.343H8.5615L8.4525 9.687L7.75 11.86C6.91116 12.0517 6.03928 12.046 5.203 11.8435L4.5155 9.7035L4.407 9.3595H1.797C1.3595 8.6395 1.099 7.8095 1.032 6.9215L2.8285 5.609L3.1255 5.405L3.0155 5.0615L2.313 2.9365C2.88061 2.27218 3.59747 1.75331 4.406 1.422ZM6.5 3.547L6.203 3.7655L3.922 5.4225L3.6405 5.641L3.7505 5.986L4.6255 8.657L4.7355 9.001H8.266L8.376 8.657L9.251 5.9855L9.361 5.6405L9.079 5.4225L6.798 3.766L6.501 3.548L6.5 3.547ZM11.375 3.953C11.6497 4.48674 11.8345 5.06213 11.922 5.656L11.031 5.016L11.375 3.953ZM1.61 3.9845L1.953 5.0145L1.078 5.656C1.1695 5.061 1.345 4.499 1.61 3.9845ZM6.5 4.7965L8.1875 6.015L7.5475 8H5.4525L4.8125 6.015L6.5 4.7965ZM9.297 10.3435H10.422C9.9968 10.7833 9.50009 11.1478 8.953 11.4215L9.297 10.3435ZM2.578 10.3585H3.672L4.0155 11.406C3.48323 11.1367 2.99748 10.7826 2.578 10.3585Z" fill="black"/>
</svg>
