<svg width="22" height="22" viewBox="0 0 22 22" fill="none" xmlns="http://www.w3.org/2000/svg">
<path d="M9.42223 0V12.7228H12.5778V0H9.42223ZM3.22131 3.22131C1.2307 5.21193 0 7.96242 0 11C0 17.0751 4.92486 22 11 22C17.0751 22 22 17.0751 22 11C22 7.96242 20.7693 5.21193 18.7787 3.22131L16.5631 5.4369C17.9869 6.86063 18.8673 8.82768 18.8673 11C18.8673 15.3447 15.3446 18.8673 11 18.8673C6.65535 18.8673 3.13269 15.3447 3.13269 11C3.13269 8.82768 4.01315 6.86063 5.4369 5.4369L3.22131 3.22131Z" fill="white"/>
</svg>
