<svg width="15" height="19" viewBox="0 0 15 19" fill="none" xmlns="http://www.w3.org/2000/svg">
<path d="M1.875 19C1.35938 19 0.917814 18.8227 0.550314 18.468C0.182814 18.1133 -0.000623408 17.6875 1.59168e-06 17.1905V8.14286C1.59168e-06 7.64524 0.183751 7.2191 0.551251 6.86443C0.918751 6.50976 1.36 6.33273 1.875 6.33333H2.8125V4.52381C2.8125 3.27222 3.26969 2.20521 4.18406 1.32276C5.09844 0.440318 6.20375 -0.000602557 7.5 6.18007e-07C8.79688 6.18007e-07 9.9025 0.441223 10.8169 1.32367C11.7312 2.20611 12.1881 3.27283 12.1875 4.52381V6.33333H13.125C13.6406 6.33333 14.0822 6.51067 14.4497 6.86533C14.8172 7.22 15.0006 7.64584 15 8.14286V17.1905C15 17.6881 14.8162 18.1142 14.4487 18.4689C14.0812 18.8236 13.64 19.0006 13.125 19H1.875ZM7.5 14.4762C8.01562 14.4762 8.45719 14.2989 8.82469 13.9442C9.19219 13.5895 9.37562 13.1637 9.375 12.6667C9.375 12.169 9.19125 11.7429 8.82375 11.3882C8.45625 11.0336 8.015 10.8565 7.5 10.8571C6.98438 10.8571 6.54281 11.0345 6.17531 11.3891C5.80781 11.7438 5.62438 12.1697 5.625 12.6667C5.625 13.1643 5.80875 13.5904 6.17625 13.9451C6.54375 14.2998 6.985 14.4768 7.5 14.4762ZM4.6875 6.33333H10.3125V4.52381C10.3125 3.76984 10.0391 3.12897 9.49219 2.60119C8.94531 2.07341 8.28125 1.80952 7.5 1.80952C6.71875 1.80952 6.05469 2.07341 5.50781 2.60119C4.96094 3.12897 4.6875 3.76984 4.6875 4.52381V6.33333Z" fill="white"/>
</svg>
