<svg width="360" height="59" viewBox="0 0 360 59" fill="none" xmlns="http://www.w3.org/2000/svg">
<path d="M360 0C344.999 0 344.999 14.9954 329.998 14.9954C314.996 14.9954 314.996 0 299.995 0C284.994 0 284.994 14.9954 269.993 14.9954C254.991 14.9954 254.991 0 239.99 0C224.989 0 224.989 14.9954 209.988 14.9954C194.994 14.9954 194.994 0 179.993 0C164.991 0 164.991 14.9954 149.998 14.9954C134.996 14.9954 134.996 0 119.995 0C104.994 0 104.994 14.9954 89.9925 14.9954C74.9988 14.9954 74.9988 0 59.9975 0C44.9963 0 44.9963 14.9954 29.995 14.9954C15.0012 14.9954 15.0012 0 0 0V59H360V0Z" fill="url(#paint0_linear_252_564)"/>
<defs>
<linearGradient id="paint0_linear_252_564" x1="180" y1="67" x2="180" y2="-68.5" gradientUnits="userSpaceOnUse">
<stop stop-color="#01B65F"/>
<stop offset="1" stop-color="#51CDE2"/>
</linearGradient>
</defs>
</svg>
