<svg width="19" height="18" viewBox="0 0 19 18" fill="none" xmlns="http://www.w3.org/2000/svg">
<path d="M9.3596 0C10.5132 0 11.6195 0.458257 12.4352 1.27396C13.2509 2.08966 13.7092 3.19599 13.7092 4.34957C13.7092 5.50315 13.2509 6.60948 12.4352 7.42518C11.6195 8.24088 10.5132 8.69914 9.3596 8.69914C8.20602 8.69914 7.09969 8.24088 6.28399 7.42518C5.46829 6.60948 5.01003 5.50315 5.01003 4.34957C5.01003 3.19599 5.46829 2.08966 6.28399 1.27396C7.09969 0.458257 8.20602 0 9.3596 0ZM9.3596 10.8739C14.1659 10.8739 18.0587 12.8204 18.0587 15.2235V17.3983H0.660461V15.2235C0.660461 12.8204 4.55333 10.8739 9.3596 10.8739Z" fill="white"/>
</svg>
