<svg width="21" height="18" viewBox="0 0 21 18" fill="none" xmlns="http://www.w3.org/2000/svg">
<path d="M4.25439 3.48682C3.93896 3.84375 3.98047 4.28369 4.3125 4.51611C4.63623 4.74854 5.02637 4.67383 5.30029 4.3667C6.59521 2.88916 8.50439 1.95117 10.6294 1.95117C14.2402 1.95117 17.187 4.63232 17.6187 8.12695H16.3818C15.7925 8.12695 15.6431 8.52539 15.9585 8.98193L17.8179 11.6299C18.0835 12.0117 18.4819 12.02 18.7559 11.6299L20.6069 8.99023C20.939 8.52539 20.7812 8.12695 20.1836 8.12695H19.0464C18.5898 3.90186 14.9541 0.540039 10.6294 0.540039C8.09766 0.540039 5.81494 1.68555 4.25439 3.48682ZM0.643555 9.03174C0.319824 9.48828 0.469238 9.89502 1.06689 9.89502H2.2124C2.66064 14.1201 6.30469 17.4736 10.6294 17.4736C13.1611 17.4736 15.4521 16.3198 17.0127 14.5269C17.3198 14.1699 17.2783 13.7217 16.9546 13.4893C16.6309 13.2568 16.2324 13.3398 15.9668 13.647C14.6802 15.1328 12.771 16.0625 10.6294 16.0625C7.01025 16.0625 4.06348 13.3813 3.64014 9.89502H4.87695C5.46631 9.89502 5.61572 9.48828 5.30029 9.04004L3.44092 6.39209C3.17529 6.01025 2.77686 6.00195 2.50293 6.39209L0.643555 9.03174Z" fill="#24D993"/>
</svg>
