<svg width="28" height="28" viewBox="0 0 28 28" fill="none" xmlns="http://www.w3.org/2000/svg">
<path d="M10.642 5.18839C12.2183 2.75291 15.7817 2.75291 17.358 5.18839L17.536 5.46335L17.8563 5.39476C20.693 4.78723 23.2128 7.30698 22.6052 10.1437L22.5366 10.464L22.8116 10.642C25.2471 12.2183 25.2471 15.7817 22.8116 17.358L22.5366 17.536L22.6052 17.8563C23.2128 20.693 20.693 23.2128 17.8563 22.6052L17.536 22.5366L17.358 22.8116C15.7817 25.2471 12.2183 25.2471 10.642 22.8116L10.464 22.5366L10.1437 22.6052C7.30698 23.2128 4.78723 20.693 5.39476 17.8563L5.46335 17.536L5.18839 17.358C2.75291 15.7817 2.75291 12.2183 5.18839 10.642L5.46335 10.464L5.39476 10.1437C4.78723 7.30698 7.30698 4.78723 10.1437 5.39476L10.464 5.46335L10.642 5.18839Z" fill="#24D993"/>
<path d="M10 13.5L13 16.5L18.5 11" stroke="black" stroke-width="2"/>
</svg>
