<svg width="26" height="26" viewBox="0 0 26 26" fill="none" xmlns="http://www.w3.org/2000/svg">
<path d="M22.4792 5.14587H3.52083C2.925 5.14587 2.4375 5.63337 2.4375 6.22921V19.7709C2.4375 20.3667 2.925 20.8542 3.52083 20.8542H22.4792C23.075 20.8542 23.5625 20.3667 23.5625 19.7709V6.22921C23.5625 5.63337 23.075 5.14587 22.4792 5.14587Z" stroke="#BEBEBE" stroke-linecap="round" stroke-linejoin="round"/>
<path d="M16.4145 13.0003C16.4145 13.1177 16.3836 13.233 16.3248 13.3346C16.2661 13.4362 16.1816 13.5205 16.0799 13.5791L11.1264 16.431C11.0248 16.4894 10.9097 16.5201 10.7925 16.52C10.6753 16.5198 10.5603 16.4889 10.4588 16.4302C10.3574 16.3715 10.2732 16.2872 10.2147 16.1857C10.1561 16.0842 10.1253 15.9691 10.1254 15.8519V10.1482C10.1253 10.031 10.1561 9.91588 10.2147 9.81437C10.2732 9.71286 10.3574 9.62854 10.4588 9.56987C10.5603 9.5112 10.6753 9.48025 10.7925 9.48011C10.9097 9.47998 11.0248 9.51068 11.1264 9.56912L16.0799 12.4215C16.1816 12.4801 16.2661 12.5644 16.3248 12.666C16.3836 12.7677 16.4145 12.8829 16.4145 13.0003ZM16.4145 13.0003L21.5313 13M13 5.14587V10.5658M13 15.352V20.8542M4.46875 17.3285H10.9688M4.46875 13H10.1248M4.46875 8.67158H10.9688M15.0313 17.3285H21.5313M15.0313 8.67158H21.5313" stroke="#BEBEBE" stroke-linecap="round" stroke-linejoin="round"/>
</svg>
