<svg width="14" height="19" viewBox="0 0 14 19" fill="none" xmlns="http://www.w3.org/2000/svg">
<path d="M6.84593 12C6.03094 12 5.3382 11.7083 4.7677 11.125C4.19721 10.5417 3.91196 9.83333 3.91196 9V3C3.91196 2.16667 4.19721 1.45833 4.7677 0.875C5.3382 0.291667 6.03094 0 6.84593 0C7.66092 0 8.35366 0.291667 8.92416 0.875C9.49465 1.45833 9.7799 2.16667 9.7799 3V9C9.7799 9.83333 9.49465 10.5417 8.92416 11.125C8.35366 11.7083 7.66092 12 6.84593 12ZM5.86794 19V15.925C4.17276 15.6917 2.77097 14.9167 1.66258 13.6C0.554194 12.2833 0 10.75 0 9H1.95598C1.95598 10.3833 2.43291 11.5627 3.38678 12.538C4.34065 13.5133 5.4937 14.0007 6.84593 14C8.19882 14 9.35219 13.5123 10.3061 12.537C11.2599 11.5617 11.7365 10.3827 11.7359 9H13.6919C13.6919 10.75 13.1377 12.2833 12.0293 13.6C10.9209 14.9167 9.5191 15.6917 7.82392 15.925V19H5.86794Z" fill="white"/>
</svg>
