<svg width="20" height="23" viewBox="0 0 20 23" fill="none" xmlns="http://www.w3.org/2000/svg">
<path d="M2.22222 17.1163H17.7778V9.66107C17.7778 5.50716 14.2956 2.13953 10 2.13953C5.70444 2.13953 2.22222 5.50716 2.22222 9.66107V17.1163ZM10 0C15.5222 0 20 4.32507 20 9.66107V19.2558H0V9.66107C0 4.32507 4.47778 0 10 0ZM7.22222 20.3256H12.7778C12.7778 21.0349 12.4851 21.7151 11.9642 22.2167C11.4433 22.7182 10.7367 23 10 23C9.26329 23 8.55675 22.7182 8.03582 22.2167C7.51488 21.7151 7.22222 21.0349 7.22222 20.3256Z" fill="white"/>
</svg>
