<svg width="24" height="24" viewBox="0 0 24 24" fill="none" xmlns="http://www.w3.org/2000/svg">
<path d="M2.39954 1.92632e-06C2.71475 -0.000324203 3.02692 0.0616341 3.31812 0.18231C3.60932 0.302988 3.8738 0.480005 4.09638 0.7032L13.6966 10.3032C14.1465 10.7533 14.3993 11.3636 14.3993 12C14.3993 12.6364 14.1465 13.2467 13.6966 13.6968L4.09637 23.2968C3.64372 23.734 3.03746 23.9759 2.40818 23.9704C1.77889 23.9649 1.17693 23.7125 0.731937 23.2676C0.286949 22.8226 0.0345365 22.2206 0.0290682 21.5914C0.0235999 20.9621 0.265511 20.3558 0.7027 19.9032L8.60607 12L0.702701 4.0968C0.367151 3.76116 0.138655 3.33356 0.0460891 2.86808C-0.0464745 2.40259 0.00105479 1.92011 0.182667 1.48163C0.364279 1.04315 0.67182 0.66836 1.06641 0.404638C1.461 0.140915 1.92493 0.000102974 2.39954 1.92632e-06ZM21.6 3.60488e-06C22.2365 3.66053e-06 22.8469 0.252859 23.297 0.702946C23.7471 1.15303 24 1.76348 24 2.4L24 21.6C24 22.2365 23.7471 22.847 23.297 23.2971C22.8469 23.7471 22.2365 24 21.5999 24C20.9634 24 20.353 23.7471 19.9029 23.2971C19.4528 22.847 19.1999 22.2365 19.1999 21.6L19.1999 2.4C19.1999 1.76348 19.4528 1.15303 19.9029 0.702945C20.353 0.252859 20.9634 3.54923e-06 21.6 3.60488e-06Z" fill="white"/>
</svg>
