<svg width="24" height="24" viewBox="0 0 24 24" fill="none" xmlns="http://www.w3.org/2000/svg">
<path d="M21.6005 24C21.2852 24.0003 20.9731 23.9384 20.6819 23.8177C20.3907 23.697 20.1262 23.52 19.9036 23.2968L10.3034 13.6968C9.85348 13.2467 9.60072 12.6364 9.60072 12C9.60072 11.3636 9.85348 10.7533 10.3034 10.3032L19.9036 0.7032C20.3563 0.266021 20.9625 0.0241136 21.5918 0.0295818C22.2211 0.03505 22.8231 0.287456 23.2681 0.732436C23.7131 1.17742 23.9655 1.77937 23.9709 2.40864C23.9764 3.03791 23.7345 3.64415 23.2973 4.0968L15.3939 12L23.2973 19.9032C23.6329 20.2388 23.8613 20.6664 23.9539 21.1319C24.0465 21.5974 23.9989 22.0799 23.8173 22.5184C23.6357 22.9568 23.3282 23.3316 22.9336 23.5954C22.539 23.8591 22.0751 23.9999 21.6005 24ZM2.40005 24C1.76352 24 1.15306 23.7471 0.702959 23.2971C0.252862 22.847 0 22.2365 0 21.6V2.4C0 1.76348 0.252862 1.15303 0.702959 0.702944C1.15306 0.252857 1.76352 0 2.40005 0C3.03658 0 3.64705 0.252857 4.09714 0.702944C4.54724 1.15303 4.8001 1.76348 4.8001 2.4V21.6C4.8001 22.2365 4.54724 22.847 4.09714 23.2971C3.64705 23.7471 3.03658 24 2.40005 24Z" fill="white"/>
</svg>
